<?xml version="1.0" standalone="no"?>
<!DOCTYPE svg PUBLIC "-//W3C//DTD SVG 20010904//EN"
 "http://www.w3.org/TR/2001/REC-SVG-20010904/DTD/svg10.dtd">
<svg version="1.0" xmlns="http://www.w3.org/2000/svg"
 width="512.000000pt" height="512.000000pt" viewBox="0 0 512.000000 512.000000"
 preserveAspectRatio="xMidYMid meet">
<metadata>
Created by potrace 1.14, written by Peter Selinger 2001-2017
</metadata>
<g transform="translate(0.000000,512.000000) scale(0.100000,-0.100000)"
fill="#000000" stroke="none">
<path d="M0 2560 l0 -2560 2560 0 2560 0 0 2560 0 2560 -2560 0 -2560 0 0
-2560z m3020 1985 c175 -99 345 -160 533 -190 112 -18 491 -25 625 -12 107 11
108 -2 5 -85 -189 -150 -429 -284 -633 -351 -170 -57 -296 -77 -480 -77 l-158
0 -6 -37 c-13 -95 -15 -393 -7 -1223 8 -846 10 -900 29 -988 55 -251 156 -440
285 -533 l38 -28 -53 -27 c-244 -123 -399 -256 -498 -429 -37 -65 -31 -67 -89
34 -51 90 -122 164 -224 232 -93 62 -225 132 -310 164 -26 10 -50 21 -52 25
-2 3 16 45 40 91 50 97 86 213 116 379 19 106 21 173 30 885 5 424 8 943 7
1155 l-3 385 -35 8 c-154 34 -766 148 -849 158 -106 12 -404 8 -450 -7 -17 -5
-22 -3 -19 6 2 7 51 29 108 49 200 70 349 160 548 327 l104 86 226 -60 c444
-119 598 -143 980 -157 l173 -7 -31 62 c-37 72 -73 220 -54 220 3 0 50 -25
104 -55z"/>
</g>
</svg>
